<svg width="139" height="93" viewBox="0 0 139 93" fill="none" xmlns="http://www.w3.org/2000/svg">
<g clip-path="url(#clip0)">
<path d="M50.92 53.73C50.4158 52.5647 49.985 51.3691 49.63 50.15C49.2023 48.6553 49.3053 47.0587 49.9214 45.6313C50.5376 44.2039 51.6289 43.0339 53.01 42.32L72.01 32.64C73.3626 31.9531 74.9327 31.8317 76.3748 32.3024C77.817 32.7731 79.0131 33.7974 79.7 35.15L80.5 36.73C81.0081 37.6714 81.2009 38.751 81.05 39.81C80.33 44.13 75.62 41.81 72.59 40.91C68.93 39.78 73.66 48.58 67.16 46.2C62.85 44.62 61.61 46.48 61.26 47.91C61.15 48.37 60.09 48.91 58.95 49.42C57.6966 49.9366 56.5899 50.7544 55.7282 51.801C54.8665 52.8476 54.2763 54.0907 54.01 55.42C53.97 55.64 53.94 55.86 53.92 56.08C53.45 60.87 58.92 64.75 63.22 62.66L87.44 50.35C87.44 50.35 105.14 43.03 103.78 27L135.11 11.25C135.723 10.9511 136.232 10.4747 136.571 9.88257C136.91 9.29048 137.063 8.61016 137.01 7.93003C136.816 5.57349 135.711 3.38538 133.93 1.83002C133.426 1.39033 132.802 1.10929 132.139 1.02213C131.475 0.934965 130.801 1.04555 130.2 1.34003L98.49 16.48C86.34 5.94003 70.24 16.4 70.24 16.4L13.82 47.88C13.82 47.88 -2.11999 54.88 6.49001 71.8C10.78 80.24 14.77 82.87 17.49 83.47C18.0508 83.573 18.6276 83.5494 19.1782 83.401C19.7287 83.2526 20.2392 82.9831 20.6723 82.6123C21.1055 82.2414 21.4503 81.7785 21.6818 81.2574C21.9132 80.7363 22.0253 80.17 22.01 79.6C21.85 60.75 1.01001 47.6 1.01001 47.6" stroke="#2D373E" stroke-width="2" stroke-linecap="round" stroke-linejoin="round"/>
<path d="M25.2499 82L41.4699 73.75C44.6103 72.1837 47.3478 69.915 49.4699 67.12C49.9264 66.5522 50.3001 65.9227 50.5799 65.25C55.0699 51.77 46.3299 44.94 37.3799 45.49C33.6499 45.71 28.3799 49.07 26.8299 51.18C24.1399 54.93 24.8299 59.53 27.0599 63.55" stroke="#2D373E" stroke-width="2" stroke-linecap="round" stroke-linejoin="round"/>
<path d="M128.24 2.34003C128.24 2.34003 133.72 5.72003 133.16 12.25" stroke="#2D373E" stroke-width="2" stroke-linecap="round" stroke-linejoin="round"/>
<path d="M115.26 8.60004C115.877 12.4209 117.674 15.9528 120.4 18.7" stroke="#2D373E" stroke-width="2" stroke-linecap="round" stroke-linejoin="round"/>
<path d="M32.9001 67.29C36.2524 67.29 38.9701 64.5724 38.9701 61.22C38.9701 57.8677 36.2524 55.15 32.9001 55.15C29.5477 55.15 26.8301 57.8677 26.8301 61.22C26.8301 64.5724 29.5477 67.29 32.9001 67.29Z" stroke="#2D373E" stroke-width="2" stroke-linecap="round" stroke-linejoin="round"/>
<path d="M37.01 72.18C37.01 72.18 31.15 73.18 27.48 63.97" stroke="#2D373E" stroke-width="2" stroke-linecap="round" stroke-linejoin="round"/>
<g style="mix-blend-mode:multiply">
<path d="M105.54 86.05L97.0901 92.2001L88.6501 86.05C83.06 81.983 78.5114 76.651 75.3761 70.4898C72.2408 64.3287 70.6076 57.5131 70.6101 50.6C75.5705 50.3735 80.3688 48.7646 84.4631 45.955C88.5573 43.1454 91.7845 39.247 93.7801 34.7L95.7801 30.23L98.1701 35.28C100.249 39.676 103.491 43.4192 107.545 46.1039C111.6 48.7885 116.311 50.3123 121.17 50.51L123.62 50.61C123.616 57.5249 121.976 64.3406 118.834 70.5002C115.692 76.6598 111.136 81.9883 105.54 86.05Z" fill="#C5D5E4"/>
</g>
</g>
<defs>
<clipPath id="clip0">
<rect width="138.03" height="92.2" fill="white"/>
</clipPath>
</defs>
</svg>
