<svg width="166" height="161" viewBox="0 0 166 161" fill="none" xmlns="http://www.w3.org/2000/svg">
<path d="M60.4424 82.1106C64.3103 79.3063 72.4857 66.5654 90.6811 66.5654H119.222V75.4479C119.222 75.7823 119.32 76.1105 119.505 76.3978C119.69 76.6851 119.956 76.9208 120.274 77.0799C120.592 77.2391 120.951 77.3158 121.312 77.3019C121.673 77.2881 122.024 77.1842 122.327 77.0013L153.439 58.2138C153.718 58.0452 153.948 57.8147 154.107 57.5433C154.266 57.2719 154.349 56.9681 154.349 56.6595C154.349 56.3508 154.266 56.0471 154.107 55.7757C153.948 55.5043 153.718 55.2738 153.439 55.1052L122.327 36.314C122.024 36.131 121.673 36.0271 121.312 36.0133C120.95 35.9995 120.591 36.0764 120.273 36.2358C119.955 36.3951 119.689 36.6311 119.504 36.9186C119.319 37.2062 119.221 37.5346 119.222 37.8692V46.7498H93.8445C84.0763 46.7601 74.7114 50.3523 67.8039 56.7385C60.8963 63.1246 57.0103 71.7833 56.998 80.8152C56.9981 81.1842 57.1171 81.5449 57.3399 81.8511C57.5628 82.1573 57.8793 82.3951 58.249 82.5341C58.6187 82.6732 59.0249 82.7071 59.4156 82.6317C59.8063 82.5563 60.1638 82.3748 60.4424 82.1106Z" fill="#E6C9C9"/>
<path d="M150.905 79.6384C147.033 82.4445 138.861 95.1849 120.665 95.1849H92.1235V86.3009C92.1231 85.9666 92.025 85.6387 91.8397 85.3517C91.6543 85.0646 91.3886 84.8292 91.0705 84.6703C90.7524 84.5114 90.3938 84.4349 90.0326 84.4488C89.6714 84.4627 89.3209 84.5666 89.0182 84.7494L57.9054 103.54C57.6267 103.709 57.3978 103.939 57.2394 104.21C57.081 104.481 56.998 104.784 56.998 105.092C56.998 105.4 57.081 105.704 57.2394 105.975C57.3978 106.246 57.6267 106.476 57.9054 106.645L89.0182 125.435C89.3209 125.618 89.6714 125.722 90.0326 125.736C90.3938 125.75 90.7524 125.673 91.0705 125.514C91.3886 125.355 91.6543 125.12 91.8397 124.833C92.025 124.546 92.1231 124.218 92.1235 123.884V115.002H117.502C127.271 114.991 136.637 111.399 143.544 105.012C150.452 98.6253 154.338 89.966 154.349 80.9338C154.349 80.5648 154.23 80.2041 154.007 79.8979C153.784 79.5918 153.468 79.3539 153.098 79.2149C152.728 79.0759 152.322 79.0419 151.932 79.1173C151.541 79.1928 151.183 79.3742 150.905 79.6384Z" fill="#E6C9C9"/>
<path d="M103.766 32.3105C106.401 31.7136 114.486 33.3374 118.079 40.3908" stroke="#242E35" stroke-width="2" stroke-linecap="round" stroke-linejoin="round"/>
<path d="M26.7491 124.045C23.694 129.39 27.7116 132.343 29.4609 134.573C31.2103 136.804 53.6229 151.473 58.3995 152.42C62.2208 153.179 66.0639 148.938 67.5078 146.723C82.0245 124.441 111.757 78.2881 114.553 71.9379C118.048 64.0002 115.561 57.6034 114.351 53.5585C113.141 49.5136 115.831 44.9668 116.843 43.0306C117.653 41.4815 125.37 28.9933 129.127 22.9429C129.534 22.7824 130.613 22.3255 131.682 21.7821C133.018 21.1029 136.446 14.8581 135.447 12.9371C130.909 6.39831 123.803 4.87768 122.107 4.81179C120.75 4.75907 119.632 6.06379 119.242 6.72273C118.55 7.51515 117.098 9.21861 116.817 9.69305C116.466 10.2861 114.55 12.6228 115 15.0204C107.371 29.7199 97.7006 39.7511 92.4651 40.9321C81.4364 42.4325 76.817 47.3087 74.9773 49.2906C73.1376 51.2725 30.5679 117.365 26.7491 124.045Z" stroke="#242E35" stroke-width="2" stroke-linecap="round" stroke-linejoin="round"/>
<path d="M122.448 16.0645C124.375 16.8153 128.442 19.2703 129.302 23.0829" stroke="#242E35" stroke-width="2" stroke-linecap="round" stroke-linejoin="round"/>
<path d="M115.205 14.6934C116.237 14.6555 118.521 14.6597 119.403 14.9795" stroke="#242E35" stroke-width="2" stroke-linecap="round" stroke-linejoin="round"/>
<path d="M70.5541 56.3491C89.0387 58.1959 117.998 68.668 116.765 79.143C115.532 89.618 102.84 88.5084 89.0381 79.143C71.7861 67.4362 50.351 90.8518 61.3116 105.023C72.2722 119.195 92.1189 96.1876 78.5637 87.1528C68.6799 80.5651 43.5005 95.5 38.0005 76.6806M36.0004 68.0002C25.0005 29.5 9.55562 53.8832 14.4848 76.6806" stroke="#242E35" stroke-width="2" stroke-linecap="round" stroke-linejoin="round"/>
<path d="M3.50004 71.0009C7.00004 71.0009 11 72.5009 14.3631 78.9525C16.5439 81.5576 15.1602 69.1116 21.4999 66.9998" stroke="#242E35" stroke-width="2" stroke-linecap="round" stroke-linejoin="round"/>
</svg>
