<svg class="wineLineBig" width="1310" height="550" viewBox="0 5.867 1440 602.882" fill="none" xmlns="http://www.w3.org/2000/svg">
  <path d="M 273 579.907 C 197.874 596.789 24 555.907 0 599.907 L 0 610.308 L 1440 607.354 L 1440.985 55.876 C 1418.985 55.876 1402.5 58.773 1387 76.907 C 1312.96 163.507 1267.23 211.846 1211 161.408 C 1154.77 110.97 1161.04 -8.751 1118 7.907 C 1065.8 28.113 1079 255.908 1032.5 265.907 C 979.5 280.407 1010.2 225.1 960 219.907 C 873 210.907 922.457 497.617 731.5 464.407 C 674 454.407 624.5 456.408 541 477.408 C 504 486.713 497.5 458.407 444.5 467.907 C 392.5 482.907 362 559.907 273 579.907 Z" fill="#E6C9C9" stroke="transparent"/>
  <path d="M 266.341 599.727 C 140.082 609.727 44.346 588.357 -1.207 609.727 L 1441.747 609.727 L 1441.747 351.727 C 1359.579 436.727 1356.573 410.227 1293.443 420.227 C 1215.283 440.727 1256.869 499.227 1167.686 493.227 C 1078.503 487.227 1073.493 525.227 1020.885 555.227 C 971.284 577.727 1019.883 499.227 952.245 485.727 C 893.159 473.933 892.597 505.207 763.859 520.227 C 725.28 524.727 720.13 557.807 693.215 543.227 C 597.705 491.485 566.054 493.303 529.88 505.727 C 476.289 527.094 386.797 590.187 266.341 599.727 Z" fill="#3c400c" style=""/>
</svg>