<svg width="153" height="163" viewBox="0 0 153 163" fill="none" xmlns="http://www.w3.org/2000/svg">
<ellipse cx="72.3087" cy="75.2451" rx="57.2228" ry="22.0088" fill="#FAE8D1"/>
<ellipse cx="72.3087" cy="140.849" rx="57.2228" ry="22.0088" fill="#E0E5CD"/>
<path d="M141.856 75.2449C141.856 91.2897 110.324 104.296 71.428 104.296C32.5317 104.296 1 91.2897 1 75.2449C1 59.2002 32.5317 46.1934 71.428 46.1934C84.2561 46.1934 96.283 47.6081 106.642 50.0799" stroke="#242E35" stroke-width="2" stroke-linecap="round" stroke-linejoin="round"/>
<path d="M141.856 76.1191V112.915C141.856 128.572 110.324 141.265 71.428 141.265C32.5317 141.265 1 128.572 1 112.915V76.1191" stroke="#242E35" stroke-width="2" stroke-linecap="round" stroke-linejoin="round"/>
<path d="M81.7496 68.2726C74.9798 65.845 62.9674 66.1013 63.1875 71.9858C63.4628 79.3414 81.9461 73.5262 82.1624 79.3056C82.3786 85.0851 62.4037 86.7362 62.266 83.0584" stroke="#242E35" stroke-width="2" stroke-linecap="round" stroke-linejoin="round"/>
<path d="M72.1035 62.1855L73.4732 90.4712" stroke="#242E35" stroke-width="2" stroke-linecap="round" stroke-linejoin="round"/>
<path d="M130.335 57.9473C130.335 57.9473 156.065 30.662 134.452 39.7569C112.84 48.8518 143.864 4.20406 143.864 4.20406" stroke="#242E35" stroke-width="2" stroke-linecap="round" stroke-linejoin="round"/>
<path d="M124.616 6.95422C128.148 7.78969 136.724 8.20742 142.777 3.19464C150.344 -3.07133 139.75 14.4734 151.858 19.4862" stroke="#242E35" stroke-width="2" stroke-linecap="round" stroke-linejoin="round"/>
<line x1="1" y1="-1" x2="26.2414" y2="-1" transform="matrix(0 -1 -1 0 12.4453 118.836)" stroke="#242E35" stroke-width="2" stroke-linecap="round" stroke-linejoin="round"/>
<line x1="1" y1="-1" x2="26.2414" y2="-1" transform="matrix(0 -1 -1 0 34.8799 138.066)" stroke="#242E35" stroke-width="2" stroke-linecap="round" stroke-linejoin="round"/>
<line x1="1" y1="-1" x2="26.2414" y2="-1" transform="matrix(0 -1 -1 0 60.5186 130.053)" stroke="#242E35" stroke-width="2" stroke-linecap="round" stroke-linejoin="round"/>
</svg>
