<svg width="129" height="86" viewBox="0 0 129 86" fill="none" xmlns="http://www.w3.org/2000/svg">
<g clip-path="url(#clip0)">
<path d="M127.68 10.38H5.97998V84.35H127.68V10.38Z" stroke="#242E35" stroke-width="2" stroke-linecap="round" stroke-linejoin="round"/>
<path d="M122.71 67.35V27.35C119.891 27.3341 117.192 26.203 115.204 24.2037C113.216 22.2044 112.1 19.4995 112.1 16.6801H21.6299C21.6299 19.5108 20.5061 22.2258 18.5054 24.2284C16.5046 26.231 13.7907 27.3573 10.96 27.36V67.36C13.7907 67.3626 16.5046 68.4891 18.5054 70.4917C20.5061 72.4943 21.6299 75.2093 21.6299 78.04H112.1C112.095 75.2171 113.208 72.507 115.197 70.5034C117.185 68.4998 119.887 67.3658 122.71 67.35V67.35Z" stroke="#242E35" stroke-width="2" stroke-linecap="round" stroke-linejoin="round"/>
<path d="M68.48 65.39C78.4046 65.39 86.45 57.3446 86.45 47.42C86.45 37.4955 78.4046 29.45 68.48 29.45C58.5555 29.45 50.51 37.4955 50.51 47.42C50.51 57.3446 58.5555 65.39 68.48 65.39Z" fill="#E6C9C9"/>
<path d="M32.4801 62.82C40.9853 62.82 47.8801 55.9252 47.8801 47.42C47.8801 38.9148 40.9853 32.02 32.4801 32.02C23.9749 32.02 17.0801 38.9148 17.0801 47.42C17.0801 55.9252 23.9749 62.82 32.4801 62.82Z" stroke="#242E35" stroke-width="2" stroke-linecap="round" stroke-linejoin="round"/>
<path d="M104.07 62.82C112.575 62.82 119.47 55.9252 119.47 47.42C119.47 38.9148 112.575 32.02 104.07 32.02C95.5647 32.02 88.6699 38.9148 88.6699 47.42C88.6699 55.9252 95.5647 62.82 104.07 62.82Z" stroke="#242E35" stroke-width="2" stroke-linecap="round" stroke-linejoin="round"/>
<path d="M68.2399 67.78C79.4844 67.78 88.5999 58.6645 88.5999 47.42C88.5999 36.1755 79.4844 27.06 68.2399 27.06C56.9954 27.06 47.8799 36.1755 47.8799 47.42C47.8799 58.6645 56.9954 67.78 68.2399 67.78Z" stroke="#242E35" stroke-width="2" stroke-linecap="round" stroke-linejoin="round"/>
<path d="M47.88 47.37H32.48" stroke="#242E35" stroke-width="2" stroke-linecap="round" stroke-linejoin="round"/>
<path d="M107.13 32.21L69.49 27.01" stroke="#242E35" stroke-width="2" stroke-linecap="round" stroke-linejoin="round"/>
<path d="M69.49 67.73L107.13 62.53" stroke="#242E35" stroke-width="2" stroke-linecap="round" stroke-linejoin="round"/>
<path d="M5.82 74.97H1V1H122.7V9.87" stroke="#242E35" stroke-width="2" stroke-linecap="round" stroke-linejoin="round"/>
</g>
<defs>
<clipPath id="clip0">
<rect width="128.68" height="85.36" fill="white"/>
</clipPath>
</defs>
</svg>
