<svg width="148" height="150" viewBox="0 0 148 150" fill="none" xmlns="http://www.w3.org/2000/svg">
<path d="M53.632 102.034C34.8217 97.8214 19.1465 104.96 13.6602 109.056V138.117C35.9974 115.882 70.2169 130.557 84.1987 135.776C98.3064 141.042 114.765 138.117 122.995 135.776V110.809C98.3064 119.585 77.1448 107.3 53.632 102.034Z" fill="#C5D5E4"/>
<path d="M109.506 83.6018C99.6054 80.6711 91.3553 85.637 88.4678 88.4863V102.848C102.278 93.0899 116.089 100.546 124.145 103.672C131.864 106.667 141.681 105.3 146.012 103.672V88.4863C133.018 94.5908 121.881 87.2652 109.506 83.6018Z" fill="#C5D5E4"/>
<path d="M43.5111 50.0573C31.5714 75.0245 16.8139 121.107 56.8184 113.407C85.931 107.804 117.816 139.878 127.023 128.369C131.051 122.614 123.136 119.134 111.486 123.765C96.9232 129.555 92.6787 141.604 71.9626 137.001M52.1274 28.7558C57.9939 35.4278 57.2241 40.0105 46.0049 37.1528C34.7857 34.295 31.5587 23.5158 34.675 17.5397C37.7913 11.5637 42.9615 27.2178 49.0842 18.8219C55.2069 10.426 57.8102 14.2753 62.4668 19.4442C67.1233 24.6132 67.1597 16.6576 71.9626 10.3148C76.7655 3.97209 78.4891 15.9602 74.6764 30.9184C70.8637 45.8765 53.6679 39.9018 46.0783 41.5521C38.4888 43.2024 42.3019 48.5541 61.514 43.4935C80.7261 38.4329 91.7258 48.404 103.606 70.5467C113.078 89.1266 112.396 97.8878 98.8482 104.201" stroke="#242E35" stroke-width="2" stroke-linecap="round" stroke-linejoin="round"/>
<ellipse cx="67.6357" cy="79.9839" rx="16.6879" ry="16.1125" transform="rotate(-12.2676 67.6357 79.9839)" stroke="#242E35" stroke-width="2" stroke-linecap="round" stroke-linejoin="round"/>
<path d="M71.4826 73.2977C68.0664 73.8363 61.412 75.7325 62.1244 79.0086C63.0148 83.1037 72.6276 78.5633 73.5181 82.6584C74.2304 85.9345 67.6608 88.2207 64.287 88.9543" stroke="#242E35" stroke-width="2" stroke-linecap="round" stroke-linejoin="round"/>
<line x1="65.1828" y1="72.1202" x2="69.4041" y2="91.5335" stroke="#242E35" stroke-width="2" stroke-linecap="round" stroke-linejoin="round"/>
<path d="M54.3783 45.1753C52.9734 46.651 49.1716 52.1168 48.5053 58.5812C47.839 65.0456 56.7833 52.9778 61.3388 46.1358C64.8437 50.3474 72.4957 57.7533 75.0641 53.6839C78.2746 48.5973 71.719 43.1601 66.4085 42.5594" stroke="#242E35" stroke-width="2" stroke-linecap="round" stroke-linejoin="round"/>
<path d="M90.7695 110.33C95.7173 104.072 101.703 100.909 117.982 106.967C134.261 113.025 146.012 109.176 146.012 109.176" stroke="#242E35" stroke-width="2" stroke-linecap="round" stroke-linejoin="round"/>
<path d="M1 133.549C22.2915 144.485 17.1125 105.927 33.225 124.345C49.3374 142.762 56.2428 124.345 56.2428 124.345" stroke="#242E35" stroke-width="2" stroke-linecap="round" stroke-linejoin="round"/>
<path d="M30.3477 94.9945C25.5524 94.8027 12.9693 95.9152 1 101.9" stroke="#242E35" stroke-width="2" stroke-linecap="round" stroke-linejoin="round"/>
<path d="M106.882 77.7305C109.375 77.7305 115.629 78.421 120.693 81.1831C127.022 84.6358 135.654 86.9376 138.531 85.2113" stroke="#242E35" stroke-width="2" stroke-linecap="round" stroke-linejoin="round"/>
</svg>
