<svg width="97" height="155" viewBox="0 0 97 155" fill="none" xmlns="http://www.w3.org/2000/svg">
<g clip-path="url(#clip0)">
<path d="M71.8524 60.6172L82.2708 79.5076C83.4156 81.6829 83.6446 84.2016 82.9577 86.6058L66.3571 143.62C65.2122 147.398 61.2052 149.574 57.4271 148.314L24.7983 137.667C22.2796 136.866 20.7913 134.118 21.5927 131.485L22.852 127.363" stroke="#242E35" stroke-width="2" stroke-miterlimit="10" stroke-linecap="round" stroke-linejoin="round"/>
<path d="M52.0462 129.08L59.1444 125.531L52.0462 121.982L57.6561 116.487L49.871 115.342L53.5346 108.244L45.7494 109.618L47.0088 101.833L40.0251 105.496L38.8802 97.5966L33.2704 103.206L29.7213 96.2227L26.2867 103.206L20.6768 97.5966L19.5319 105.496L12.5482 101.833L13.8076 109.618L6.02246 108.244L9.68604 115.342L1.90093 116.487L7.51079 121.982L0.412598 125.531L7.51079 129.08L1.90093 134.576L9.68604 135.835L6.02246 142.819L13.8076 141.56L12.5482 149.345L19.5319 145.681L20.6768 153.466L26.2867 147.856L29.7213 154.955L33.2704 147.856L38.8802 153.466L40.0251 145.681L47.0088 149.345L45.7494 141.56L53.5346 142.819L49.871 135.835L57.6561 134.576L52.0462 129.08Z" fill="#E0E5CD"/>
<path d="M67.8454 61.4187C67.8454 61.4187 101.161 54.206 84.3316 27.7595C67.502 1.31301 95.8947 -8.76184 95.4368 16.1963C94.9789 41.1545 45.635 30.2782 55.3664 59.1289" stroke="#242E35" stroke-width="2" stroke-miterlimit="10" stroke-linecap="round" stroke-linejoin="round"/>
<path d="M62.5791 117.975C62.2357 116.258 61.0908 115.113 59.3735 114.541C57.5417 113.968 55.8244 114.083 53.9926 114.999C51.4739 116.258 49.5276 118.777 48.3827 122.326C48.0393 123.356 48.0393 124.386 48.2683 125.531C48.6117 127.249 49.7566 128.394 51.4739 128.966C53.1912 129.538 55.023 129.424 56.8548 128.508C59.3735 127.249 61.3198 124.73 62.4646 121.181C62.8081 120.265 62.8081 119.12 62.5791 117.975ZM60.1749 120.379C59.9459 121.295 59.488 122.097 59.03 123.013C57.8852 124.959 56.7403 126.447 55.4809 127.363C54.2216 128.279 52.9622 128.508 51.8174 128.165C50.6725 127.821 50.1 126.905 50.1 125.531C50.1 124.844 50.2145 124.043 50.558 123.127C50.787 122.211 51.2449 121.41 51.7029 120.494C52.8477 118.548 53.9926 117.059 55.252 116.143C56.5113 115.228 57.7707 114.884 58.9155 115.342C60.0604 115.685 60.6328 116.601 60.6328 117.975C60.6328 118.777 60.5184 119.578 60.1749 120.379ZM54.4506 97.0241C54.2216 95.9937 53.7636 95.0778 52.9622 94.5054C52.8477 94.3909 52.7332 94.3909 52.6188 94.2764C52.3898 94.1619 52.1608 94.0474 51.9318 93.933C51.8173 93.933 51.7029 93.8185 51.7029 93.8185C51.5884 93.704 51.3594 93.704 51.2449 93.5895C49.4131 93.0171 47.5813 93.246 45.7495 94.1619C44.1467 94.9633 42.7729 96.2227 41.7425 97.94C41.5135 98.2835 41.2845 98.6269 41.1701 99.0849C41.0556 99.4283 40.8266 99.6573 40.7121 100.001C40.4831 100.459 40.3687 101.031 40.1397 101.489C40.0252 101.718 40.0252 102.062 39.9107 102.405C39.9107 102.519 39.9107 102.748 39.9107 102.863C39.7962 103.55 39.9107 104.122 40.0252 104.809C40.2542 106.069 40.9411 106.984 42.086 107.671C42.4294 107.9 42.8874 108.015 43.2308 108.244C43.4598 108.358 43.6888 108.358 43.9177 108.473C45.5206 108.816 47.0089 108.587 48.6117 107.786C49.5276 107.328 50.4435 106.641 51.1304 105.84C51.2449 105.725 51.3594 105.611 51.4739 105.382C51.7029 105.038 52.0463 104.695 52.2753 104.351C52.3898 104.237 52.5043 104.122 52.5043 103.893C52.8477 103.435 53.0767 102.863 53.4202 102.29C53.5347 102.062 53.6491 101.947 53.6491 101.718C53.7636 101.489 53.8781 101.26 53.8781 101.031C53.9926 100.917 53.9926 100.688 54.1071 100.459C54.1071 100.344 54.2216 100.115 54.2216 100.001C54.3361 99.6573 54.3361 99.4283 54.3361 99.0849C54.3361 98.9704 54.3361 98.7414 54.3361 98.6269C54.565 97.94 54.565 97.482 54.4506 97.0241ZM52.0463 99.4283C51.9318 99.6573 51.9318 99.8863 51.8174 100.115C51.5884 100.802 51.2449 101.489 50.9015 102.176C50.1 103.664 49.1841 104.809 48.2683 105.725C48.1538 105.84 47.9248 106.069 47.8103 106.183C47.6958 106.298 47.4668 106.412 47.3524 106.527C46.093 107.442 44.8336 107.671 43.6888 107.328C42.5439 106.984 41.9715 106.069 41.9715 104.695V104.58C41.9715 103.893 42.086 103.206 42.4294 102.405C42.5439 102.176 42.5439 101.947 42.6584 101.718C43.3453 100.001 44.1467 98.5124 45.2916 97.1386C45.4061 97.0241 45.5206 96.9096 45.6351 96.7951C45.864 96.5662 45.9785 96.3372 46.2075 96.2227C46.322 96.1082 46.551 95.8792 46.6654 95.7647C47.4668 95.0778 48.2683 94.6199 48.9552 94.5054C49.0697 94.5054 49.1841 94.5054 49.1841 94.5054C49.2986 94.5054 49.4131 94.5054 49.5276 94.5054C49.8711 94.5054 50.2145 94.5054 50.6725 94.6199C50.787 94.6199 50.9015 94.7344 51.1304 94.8488C51.3594 94.9633 51.5884 95.0778 51.8174 95.3068C52.2753 95.7647 52.5043 96.4517 52.5043 97.2531C52.5043 97.711 52.3898 98.5124 52.0463 99.4283Z" fill="#242E35"/>
<path d="M54.5649 98.398C54.5649 98.169 54.5649 97.8255 54.4504 97.5966C54.5649 97.8255 54.5649 98.169 54.5649 98.398Z" fill="#242E35"/>
<path d="M46.7797 95.3068C48.955 106.641 64.7542 98.6269 64.7542 98.6269L43.3451 119.807C33.7282 127.821 29.0342 127.249 26.859 125.417C25.2562 124.043 24.7982 121.868 25.3706 119.921L40.025 73.2108C40.8264 70.4631 42.8871 68.4023 45.5204 67.2575L65.7845 59.1289C65.7845 59.1289 74.1421 65.9981 69.1047 73.0963C64.0672 80.1945 58.9153 76.1875 61.3196 67.6009C62.2355 64.2808 64.2962 63.3649 67.7308 61.9911" stroke="#242E35" stroke-width="2" stroke-miterlimit="10" stroke-linecap="round" stroke-linejoin="round"/>
</g>
<defs>
<clipPath id="clip0">
<rect x="0.412598" y="0.74054" width="96.1691" height="154.214" fill="white"/>
</clipPath>
</defs>
</svg>
