<svg width="97" height="155" viewBox="0 0 97 155" fill="none" xmlns="http://www.w3.org/2000/svg">
<g clip-path="url(#clip0)">
<path d="M71.8523 60.6172L82.2706 79.5075C83.4155 81.6828 83.6445 84.2015 82.9576 86.6057L66.3569 143.62C65.2121 147.398 61.205 149.574 57.427 148.314L24.7982 137.667C22.2795 136.866 20.7911 134.118 21.5925 131.485L22.8519 127.363" stroke="#242E35" stroke-width="2" stroke-miterlimit="10" stroke-linecap="round" stroke-linejoin="round"/>
<path d="M52.0461 129.08L59.1443 125.531L52.0461 121.982L57.656 116.487L49.8709 115.342L53.5344 108.244L45.7493 109.618L47.0087 101.833L40.025 105.496L38.8801 97.5965L33.2702 103.206L29.7211 96.2227L26.2865 103.206L20.6767 97.5965L19.5318 105.496L12.5481 101.833L13.8075 109.618L6.02234 108.244L9.68592 115.342L1.90081 116.487L7.51067 121.982L0.412476 125.531L7.51067 129.08L1.90081 134.576L9.68592 135.835L6.02234 142.819L13.8075 141.56L12.5481 149.345L19.5318 145.681L20.6767 153.466L26.2865 147.856L29.7211 154.954L33.2702 147.856L38.8801 153.466L40.025 145.681L47.0087 149.345L45.7493 141.56L53.5344 142.819L49.8709 135.835L57.656 134.576L52.0461 129.08Z" fill="#E0E5CD"/>
<path d="M67.8453 61.4185C67.8453 61.4185 101.161 54.2058 84.3314 27.7593C67.5019 1.31283 95.8946 -8.76203 95.4367 16.1961C94.9787 41.1543 45.6349 30.278 55.3662 59.1288" stroke="#242E35" stroke-width="2" stroke-miterlimit="10" stroke-linecap="round" stroke-linejoin="round"/>
<path d="M62.5789 117.975C62.2354 116.258 61.0905 115.113 59.3732 114.541C57.5415 113.968 55.8241 114.083 53.9924 114.998C51.4736 116.258 49.5274 118.777 48.3825 122.326C48.039 123.356 48.039 124.386 48.268 125.531C48.6115 127.249 49.7563 128.393 51.4736 128.966C53.1909 129.538 55.0227 129.424 56.8545 128.508C59.3732 127.249 61.3195 124.73 62.4644 121.181C62.8079 120.265 62.8079 119.12 62.5789 117.975ZM60.1747 120.379C59.9457 121.295 59.4877 122.097 59.0298 123.013C57.8849 124.959 56.74 126.447 55.4807 127.363C54.2213 128.279 52.962 128.508 51.8171 128.164C50.6722 127.821 50.0998 126.905 50.0998 125.531C50.0998 124.844 50.2143 124.043 50.5577 123.127C50.7867 122.211 51.2447 121.41 51.7026 120.494C52.8475 118.548 53.9924 117.059 55.2517 116.143C56.5111 115.227 57.7704 114.884 58.9153 115.342C60.0602 115.685 60.6326 116.601 60.6326 117.975C60.6326 118.777 60.5181 119.578 60.1747 120.379ZM54.4503 97.024C54.2213 95.9937 53.7634 95.0778 52.962 94.5053C52.8475 94.3908 52.733 94.3908 52.6185 94.2764C52.3895 94.1619 52.1606 94.0474 51.9316 93.9329C51.8171 93.9329 51.7026 93.8184 51.7026 93.8184C51.5881 93.7039 51.3592 93.7039 51.2447 93.5894C49.4129 93.017 47.5811 93.246 45.7493 94.1619C44.1465 94.9633 42.7726 96.2226 41.7422 97.9399C41.5133 98.2834 41.2843 98.6269 41.1698 99.0848C41.0553 99.4283 40.8264 99.6572 40.7119 100.001C40.4829 100.459 40.3684 101.031 40.1394 101.489C40.0249 101.718 40.0249 102.061 39.9105 102.405C39.9105 102.519 39.9105 102.748 39.9105 102.863C39.796 103.55 39.9105 104.122 40.0249 104.809C40.2539 106.069 40.9408 106.984 42.0857 107.671C42.4292 107.9 42.8871 108.015 43.2306 108.244C43.4596 108.358 43.6885 108.358 43.9175 108.473C45.5203 108.816 47.0087 108.587 48.6115 107.786C49.5274 107.328 50.4433 106.641 51.1302 105.84C51.2447 105.725 51.3592 105.611 51.4736 105.382C51.7026 105.038 52.0461 104.695 52.2751 104.351C52.3895 104.237 52.504 104.122 52.504 103.893C52.8475 103.435 53.0765 102.863 53.4199 102.29C53.5344 102.061 53.6489 101.947 53.6489 101.718C53.7634 101.489 53.8779 101.26 53.8779 101.031C53.9924 100.917 53.9924 100.688 54.1068 100.459C54.1068 100.344 54.2213 100.115 54.2213 100.001C54.3358 99.6572 54.3358 99.4283 54.3358 99.0848C54.3358 98.9703 54.3358 98.7413 54.3358 98.6269C54.5648 97.9399 54.5648 97.482 54.4503 97.024ZM52.0461 99.4283C51.9316 99.6572 51.9316 99.8862 51.8171 100.115C51.5881 100.802 51.2447 101.489 50.9012 102.176C50.0998 103.664 49.1839 104.809 48.268 105.725C48.1535 105.84 47.9245 106.069 47.8101 106.183C47.6956 106.297 47.4666 106.412 47.3521 106.526C46.0928 107.442 44.8334 107.671 43.6885 107.328C42.5437 106.984 41.9712 106.069 41.9712 104.695V104.58C41.9712 103.893 42.0857 103.206 42.4292 102.405C42.5437 102.176 42.5437 101.947 42.6581 101.718C43.3451 100.001 44.1465 98.5124 45.2913 97.1385C45.4058 97.024 45.5203 96.9096 45.6348 96.7951C45.8638 96.5661 45.9783 96.3371 46.2072 96.2226C46.3217 96.1081 46.5507 95.8792 46.6652 95.7647C47.4666 95.0778 48.268 94.6198 48.9549 94.5053C49.0694 94.5053 49.1839 94.5053 49.1839 94.5053C49.2984 94.5053 49.4129 94.5053 49.5274 94.5053C49.8708 94.5053 50.2143 94.5053 50.6722 94.6198C50.7867 94.6198 50.9012 94.7343 51.1302 94.8488C51.3592 94.9633 51.5881 95.0778 51.8171 95.3067C52.2751 95.7647 52.504 96.4516 52.504 97.253C52.504 97.711 52.3895 98.5124 52.0461 99.4283Z" fill="#242E35"/>
<path d="M54.5648 98.3978C54.5648 98.1689 54.5648 97.8254 54.4503 97.5964C54.5648 97.8254 54.5648 98.1689 54.5648 98.3978Z" fill="#242E35"/>
<path d="M46.7797 95.3068C48.955 106.641 64.7542 98.6269 64.7542 98.6269L43.3451 119.807C33.7282 127.821 29.0342 127.249 26.859 125.417C25.2562 124.043 24.7982 121.868 25.3706 119.921L40.025 73.2108C40.8264 70.4631 42.8871 68.4023 45.5204 67.2575L65.7845 59.1289C65.7845 59.1289 74.1421 65.9981 69.1047 73.0963C64.0672 80.1945 58.9153 76.1875 61.3196 67.6009C62.2355 64.2808 64.2962 63.3649 67.7308 61.9911" stroke="#242E35" stroke-width="2" stroke-miterlimit="10" stroke-linecap="round" stroke-linejoin="round"/>
</g>
<defs>
<clipPath id="clip0">
<rect x="0.412476" y="0.740479" width="96.1691" height="154.214" fill="white"/>
</clipPath>
</defs>
</svg>
