<svg width="38" height="38" viewBox="0 0 38 38" fill="none" xmlns="http://www.w3.org/2000/svg">
<circle cx="19" cy="19" r="19" fill="#F1F1F1"/>
<path d="M19 18.75C20.9922 18.75 22.5 16.9375 22.5 14.5391C22.5 12.625 20.8984 11 19 11C17.1016 11 15.5 12.625 15.5 14.5391C15.5 16.9375 17.0078 18.75 19 18.75ZM19 12.2109C20.2109 12.2109 21.2812 13.3047 21.2812 14.5391C21.2812 16.25 20.3047 17.5391 19 17.5391C17.6953 17.5391 16.7188 16.25 16.7188 14.5391C16.7188 13.3047 17.7891 12.2109 19 12.2109ZM13.7578 25L13.8672 23.8359C14.1094 21.4922 16.7812 20.9766 19 20.9766C21.2188 20.9766 23.8906 21.4922 24.1328 23.8281L24.2422 25H25.4922L25.3828 23.7109C25.1094 21.1562 22.8594 19.75 19 19.75C15.1406 19.75 12.8906 21.1562 12.6172 23.7188L12.5078 25H13.7578Z" fill="#242E35"/>
</svg>
