<svg width="45" height="32" viewBox="0 0 45 32" fill="none" xmlns="http://www.w3.org/2000/svg">
<path fill-rule="evenodd" clip-rule="evenodd" d="M19.4135 2.92432L4 10.8371V14.7935H34.827V10.8371L19.4135 2.92432Z" stroke="#242424"/>
<path d="M16.6113 30.6201V14.7944" stroke="#242424"/>
<path d="M22.2168 14.7944V30.6201" stroke="#242424"/>
<path d="M6.80273 30.6201V14.7944" stroke="#242424"/>
<path d="M12.4082 14.7944V30.6201" stroke="#242424"/>
<path d="M26.4199 30.6201V14.7944" stroke="#242424"/>
<path d="M32.0254 14.7944V30.6201" stroke="#242424"/>
<path d="M0 30.8574H38.857" stroke="#242424"/>
<path fill-rule="evenodd" clip-rule="evenodd" d="M18.0117 9.519C18.0117 8.79102 18.6395 8.2002 19.4129 8.2002C20.1864 8.2002 20.8142 8.79102 20.8142 9.519C20.8142 10.247 20.1864 10.8378 19.4129 10.8378C18.6395 10.8378 18.0117 10.247 18.0117 9.519V9.519Z" stroke="#242424"/>
<circle cx="34.1503" cy="10.1503" r="9.65035" fill="white" stroke="#102035"/>
<path d="M37.7148 6.85693L31.7148 11.6569L32.0006 13.7141L33.1548 12.7369" stroke="#A86D37" stroke-linejoin="round"/>
<path fill-rule="evenodd" clip-rule="evenodd" d="M29.7148 10.0574L37.7148 6.85742L36.1148 14.8574L29.7148 10.0574Z" stroke="#A86D37" stroke-linejoin="round"/>
</svg>
